<svg width="1024" height="1024" viewBox="0 0 1024 1024" fill="none" xmlns="http://www.w3.org/2000/svg">
<g filter="url(#filter0_i_102_2)">
<rect width="1024" height="1024" rx="212.098" fill="url(#paint0_linear_102_2)"/>
</g>
<path d="M328.35 721.05C310.006 721.05 295.136 735.92 295.136 754.263V754.263C295.136 781.239 317.004 789.431 343.98 789.431H732.773C759.748 789.431 781.616 767.563 781.616 740.587V351.794C781.616 324.819 775.378 302.951 748.403 302.951V302.951C728.98 302.951 713.235 318.696 713.235 338.118V672.206C713.235 699.182 691.367 721.05 664.392 721.05H328.35Z" fill="#D9D9D9"/>
<circle cx="508.638" cy="508.637" r="20.0823" fill="#D9D9D9"/>
<path d="M661.98 373.298C642.999 353.591 620.251 337.9 595.086 327.158C569.922 316.416 542.855 310.841 515.493 310.766C488.132 310.69 461.035 316.115 435.811 326.718C410.588 337.322 387.753 352.887 368.664 372.489C349.574 392.091 334.62 415.33 324.688 440.826C314.757 466.321 310.052 493.553 310.852 520.902C311.653 548.252 317.942 575.162 329.347 600.033C340.753 624.904 357.041 647.229 377.244 665.681L406.692 633.438C390.81 618.933 378.006 601.383 369.04 581.831C360.074 562.279 355.13 541.125 354.501 519.625C353.872 498.125 357.57 476.718 365.378 456.675C373.185 436.633 384.941 418.364 399.947 402.954C414.954 387.545 432.905 375.309 452.733 366.973C472.562 358.638 493.864 354.373 515.373 354.433C536.882 354.492 558.16 358.874 577.942 367.319C597.725 375.764 615.608 388.098 630.529 403.591L661.98 373.298Z" fill="#D9D9D9"/>
<path d="M601.252 427.199C577.863 404.425 546.386 391.875 513.745 392.31C481.104 392.745 449.972 406.129 427.198 429.517C404.425 452.906 391.875 484.383 392.31 517.024C392.745 549.665 406.129 580.797 429.517 603.571L453.563 578.875C436.725 562.479 427.089 540.065 426.776 516.565C426.463 493.065 435.498 470.402 451.894 453.564C468.29 436.725 490.704 427.089 514.204 426.776C537.705 426.463 560.367 435.498 577.206 451.894L601.252 427.199Z" fill="#D9D9D9"/>
<path d="M727.437 313.326C700.443 284.055 667.768 260.592 631.405 244.369C595.043 228.145 555.755 219.502 515.941 218.966C476.128 218.431 436.622 226.014 399.836 241.254C363.05 256.493 329.756 279.069 301.985 307.604C274.214 336.138 252.549 370.032 238.313 407.218C224.076 444.403 217.566 484.1 219.181 523.884C220.796 563.669 230.501 602.708 247.704 638.617C264.907 674.526 289.248 706.554 319.24 732.744L512 512L727.437 313.326Z" fill="url(#paint1_linear_102_2)"/>
<defs>
<filter id="filter0_i_102_2" x="0" y="-29.6481" width="1028.56" height="1053.65" filterUnits="userSpaceOnUse" color-interpolation-filters="sRGB">
<feFlood flood-opacity="0" result="BackgroundImageFix"/>
<feBlend mode="normal" in="SourceGraphic" in2="BackgroundImageFix" result="shape"/>
<feColorMatrix in="SourceAlpha" type="matrix" values="0 0 0 0 0 0 0 0 0 0 0 0 0 0 0 0 0 0 127 0" result="hardAlpha"/>
<feMorphology radius="36.49" operator="erode" in="SourceAlpha" result="effect1_innerShadow_102_2"/>
<feOffset dx="4.56125" dy="-29.6481"/>
<feGaussianBlur stdDeviation="14.8241"/>
<feComposite in2="hardAlpha" operator="arithmetic" k2="-1" k3="1"/>
<feColorMatrix type="matrix" values="0 0 0 0 0.0710938 0 0 0 0 0.0710938 0 0 0 0 0.0710938 0 0 0 0.19 0"/>
<feBlend mode="normal" in2="shape" result="effect1_innerShadow_102_2"/>
</filter>
<linearGradient id="paint0_linear_102_2" x1="607.573" y1="1024" x2="589.541" y2="-204.116" gradientUnits="userSpaceOnUse">
<stop stop-color="#6E3FAB"/>
<stop offset="1" stop-color="#2496D6"/>
</linearGradient>
<linearGradient id="paint1_linear_102_2" x1="-133.709" y1="-117.102" x2="448.901" y2="575.099" gradientUnits="userSpaceOnUse">
<stop stop-color="#D9D9D9"/>
<stop offset="1" stop-color="#D9D9D9" stop-opacity="0"/>
</linearGradient>
</defs>
</svg>
